<mxfile host="app.diagrams.net" agent="Mozilla/5.0 (Windows NT 10.0; Win64; x64) AppleWebKit/537.36 (KHTML, like Gecko) Chrome/135.0.0.0 Safari/537.36 Edg/135.0.0.0" version="26.2.6">
  <diagram name="Страница — 1" id="qVf7biFab-2mFibXHdaD">
    <mxGraphModel dx="1727" dy="963" grid="1" gridSize="10" guides="1" tooltips="1" connect="1" arrows="1" fold="1" page="1" pageScale="1" pageWidth="1169" pageHeight="827" math="0" shadow="0">
      <root>
        <mxCell id="0" />
        <mxCell id="1" parent="0" />
        <mxCell id="ruvSU1vN5b7MfU3gPPGW-1" value="" style="verticalLabelPosition=bottom;verticalAlign=top;html=1;shape=mxgraph.basic.rect;fillColor2=none;strokeWidth=1;size=20;indent=5;" vertex="1" parent="1">
          <mxGeometry x="90" y="50" width="270" height="480" as="geometry" />
        </mxCell>
        <mxCell id="ruvSU1vN5b7MfU3gPPGW-2" value="" style="shape=actor;whiteSpace=wrap;html=1;" vertex="1" parent="1">
          <mxGeometry x="110" y="80" width="20" height="30" as="geometry" />
        </mxCell>
        <mxCell id="ruvSU1vN5b7MfU3gPPGW-4" value="Hello, user!" style="text;html=1;align=center;verticalAlign=middle;whiteSpace=wrap;rounded=0;" vertex="1" parent="1">
          <mxGeometry x="140" y="80" width="80" height="30" as="geometry" />
        </mxCell>
        <mxCell id="ruvSU1vN5b7MfU3gPPGW-5" value="" style="whiteSpace=wrap;html=1;shape=mxgraph.basic.oval_callout;flipV=0;flipH=1;" vertex="1" parent="1">
          <mxGeometry x="290" y="470" width="50" height="40" as="geometry" />
        </mxCell>
        <mxCell id="ruvSU1vN5b7MfU3gPPGW-6" value="" style="endArrow=none;html=1;rounded=0;entryX=1.005;entryY=0.161;entryDx=0;entryDy=0;entryPerimeter=0;exitX=-0.002;exitY=0.161;exitDx=0;exitDy=0;exitPerimeter=0;" edge="1" parent="1" source="ruvSU1vN5b7MfU3gPPGW-1" target="ruvSU1vN5b7MfU3gPPGW-1">
          <mxGeometry width="50" height="50" relative="1" as="geometry">
            <mxPoint x="310" y="270" as="sourcePoint" />
            <mxPoint x="360" y="220" as="targetPoint" />
          </mxGeometry>
        </mxCell>
        <mxCell id="ruvSU1vN5b7MfU3gPPGW-7" value="Задачи на сегодня" style="text;html=1;align=left;verticalAlign=middle;whiteSpace=wrap;rounded=0;" vertex="1" parent="1">
          <mxGeometry x="110" y="140" width="110" height="20" as="geometry" />
        </mxCell>
        <mxCell id="ruvSU1vN5b7MfU3gPPGW-8" value="Сегодня&amp;nbsp;" style="swimlane;fontStyle=0;childLayout=stackLayout;horizontal=1;startSize=26;fillColor=none;horizontalStack=0;resizeParent=1;resizeParentMax=0;resizeLast=0;collapsible=1;marginBottom=0;html=1;" vertex="1" parent="1">
          <mxGeometry x="110" y="170" width="230" height="104" as="geometry" />
        </mxCell>
        <mxCell id="ruvSU1vN5b7MfU3gPPGW-9" value="1.Задача" style="text;strokeColor=none;fillColor=none;align=left;verticalAlign=top;spacingLeft=4;spacingRight=4;overflow=hidden;rotatable=0;points=[[0,0.5],[1,0.5]];portConstraint=eastwest;whiteSpace=wrap;html=1;" vertex="1" parent="ruvSU1vN5b7MfU3gPPGW-8">
          <mxGeometry y="26" width="230" height="26" as="geometry" />
        </mxCell>
        <mxCell id="ruvSU1vN5b7MfU3gPPGW-10" value="2. Задача" style="text;strokeColor=none;fillColor=none;align=left;verticalAlign=top;spacingLeft=4;spacingRight=4;overflow=hidden;rotatable=0;points=[[0,0.5],[1,0.5]];portConstraint=eastwest;whiteSpace=wrap;html=1;" vertex="1" parent="ruvSU1vN5b7MfU3gPPGW-8">
          <mxGeometry y="52" width="230" height="26" as="geometry" />
        </mxCell>
        <mxCell id="ruvSU1vN5b7MfU3gPPGW-11" value="3. Задача" style="text;strokeColor=none;fillColor=none;align=left;verticalAlign=top;spacingLeft=4;spacingRight=4;overflow=hidden;rotatable=0;points=[[0,0.5],[1,0.5]];portConstraint=eastwest;whiteSpace=wrap;html=1;" vertex="1" parent="ruvSU1vN5b7MfU3gPPGW-8">
          <mxGeometry y="78" width="230" height="26" as="geometry" />
        </mxCell>
        <mxCell id="ruvSU1vN5b7MfU3gPPGW-13" value="" style="html=1;shadow=0;dashed=0;align=center;verticalAlign=middle;shape=mxgraph.arrows2.arrow;dy=0.6;dx=40;notch=0;" vertex="1" parent="1">
          <mxGeometry x="310" y="280" width="30" height="20" as="geometry" />
        </mxCell>
        <mxCell id="ruvSU1vN5b7MfU3gPPGW-15" value="Ещё" style="text;html=1;align=right;verticalAlign=middle;whiteSpace=wrap;rounded=0;" vertex="1" parent="1">
          <mxGeometry x="260" y="280" width="40" height="20" as="geometry" />
        </mxCell>
        <mxCell id="ruvSU1vN5b7MfU3gPPGW-17" value="" style="endArrow=none;html=1;rounded=0;entryX=1.005;entryY=0.161;entryDx=0;entryDy=0;entryPerimeter=0;exitX=-0.002;exitY=0.161;exitDx=0;exitDy=0;exitPerimeter=0;" edge="1" parent="1">
          <mxGeometry width="50" height="50" relative="1" as="geometry">
            <mxPoint x="89" y="310" as="sourcePoint" />
            <mxPoint x="361" y="310" as="targetPoint" />
          </mxGeometry>
        </mxCell>
        <mxCell id="ruvSU1vN5b7MfU3gPPGW-18" value="" style="whiteSpace=wrap;html=1;aspect=fixed;" vertex="1" parent="1">
          <mxGeometry x="110" y="320" width="40" height="40" as="geometry" />
        </mxCell>
        <mxCell id="ruvSU1vN5b7MfU3gPPGW-19" value="" style="shape=collate;whiteSpace=wrap;html=1;" vertex="1" parent="1">
          <mxGeometry x="110" y="320" width="40" height="40" as="geometry" />
        </mxCell>
        <mxCell id="ruvSU1vN5b7MfU3gPPGW-20" value="Доступно новое обучение!" style="text;html=1;align=center;verticalAlign=middle;whiteSpace=wrap;rounded=0;" vertex="1" parent="1">
          <mxGeometry x="160" y="320" width="150" height="25" as="geometry" />
        </mxCell>
        <mxCell id="ruvSU1vN5b7MfU3gPPGW-21" value="&lt;font style=&quot;font-size: 10px;&quot;&gt;Пройти&lt;/font&gt;" style="text;html=1;align=center;verticalAlign=middle;whiteSpace=wrap;rounded=0;fontStyle=4" vertex="1" parent="1">
          <mxGeometry x="200" y="345" width="50" height="15" as="geometry" />
        </mxCell>
        <mxCell id="ruvSU1vN5b7MfU3gPPGW-22" value="" style="whiteSpace=wrap;html=1;aspect=fixed;" vertex="1" parent="1">
          <mxGeometry x="110" y="394" width="40" height="40" as="geometry" />
        </mxCell>
        <mxCell id="ruvSU1vN5b7MfU3gPPGW-27" value="" style="whiteSpace=wrap;html=1;aspect=fixed;" vertex="1" parent="1">
          <mxGeometry x="190" y="470" width="40" height="40" as="geometry" />
        </mxCell>
        <mxCell id="ruvSU1vN5b7MfU3gPPGW-24" value="" style="shape=collate;whiteSpace=wrap;html=1;" vertex="1" parent="1">
          <mxGeometry x="190" y="470" width="40" height="40" as="geometry" />
        </mxCell>
        <mxCell id="ruvSU1vN5b7MfU3gPPGW-25" value="Состояние автоматов" style="text;html=1;align=center;verticalAlign=middle;whiteSpace=wrap;rounded=0;" vertex="1" parent="1">
          <mxGeometry x="160" y="406" width="130" height="16" as="geometry" />
        </mxCell>
        <mxCell id="ruvSU1vN5b7MfU3gPPGW-26" value="" style="shape=collate;whiteSpace=wrap;html=1;" vertex="1" parent="1">
          <mxGeometry x="110" y="394" width="40" height="40" as="geometry" />
        </mxCell>
        <mxCell id="ruvSU1vN5b7MfU3gPPGW-28" value="&lt;font style=&quot;font-size: 8px;&quot;&gt;камера&lt;/font&gt;" style="text;html=1;align=center;verticalAlign=middle;whiteSpace=wrap;rounded=0;" vertex="1" parent="1">
          <mxGeometry x="190" y="510" width="40" height="10" as="geometry" />
        </mxCell>
        <mxCell id="ruvSU1vN5b7MfU3gPPGW-30" value="" style="whiteSpace=wrap;html=1;aspect=fixed;" vertex="1" parent="1">
          <mxGeometry x="110" y="470" width="40" height="40" as="geometry" />
        </mxCell>
        <mxCell id="ruvSU1vN5b7MfU3gPPGW-29" value="" style="shape=collate;whiteSpace=wrap;html=1;" vertex="1" parent="1">
          <mxGeometry x="110" y="470" width="40" height="40" as="geometry" />
        </mxCell>
        <mxCell id="ruvSU1vN5b7MfU3gPPGW-31" value="&lt;font style=&quot;font-size: 8px;&quot;&gt;отчет&lt;/font&gt;" style="text;html=1;align=center;verticalAlign=middle;whiteSpace=wrap;rounded=0;" vertex="1" parent="1">
          <mxGeometry x="110" y="510" width="40" height="10" as="geometry" />
        </mxCell>
        <mxCell id="ruvSU1vN5b7MfU3gPPGW-32" value="" style="verticalLabelPosition=bottom;verticalAlign=top;html=1;shape=mxgraph.basic.rect;fillColor2=none;strokeWidth=1;size=20;indent=5;" vertex="1" parent="1">
          <mxGeometry x="720" y="50" width="270" height="480" as="geometry" />
        </mxCell>
        <mxCell id="ruvSU1vN5b7MfU3gPPGW-33" value="&lt;font style=&quot;font-size: 14px;&quot;&gt;Задачи&lt;/font&gt;" style="text;html=1;align=center;verticalAlign=middle;whiteSpace=wrap;rounded=0;" vertex="1" parent="1">
          <mxGeometry x="797.5" y="70" width="115" height="20" as="geometry" />
        </mxCell>
        <mxCell id="ruvSU1vN5b7MfU3gPPGW-34" value="" style="endArrow=none;html=1;rounded=0;entryX=1.005;entryY=0.161;entryDx=0;entryDy=0;entryPerimeter=0;exitX=-0.002;exitY=0.161;exitDx=0;exitDy=0;exitPerimeter=0;" edge="1" parent="1">
          <mxGeometry width="50" height="50" relative="1" as="geometry">
            <mxPoint x="720" y="120" as="sourcePoint" />
            <mxPoint x="992" y="120" as="targetPoint" />
          </mxGeometry>
        </mxCell>
        <mxCell id="ruvSU1vN5b7MfU3gPPGW-35" value="Сегодня&amp;nbsp;" style="swimlane;fontStyle=0;childLayout=stackLayout;horizontal=1;startSize=26;fillColor=none;horizontalStack=0;resizeParent=1;resizeParentMax=0;resizeLast=0;collapsible=1;marginBottom=0;html=1;" vertex="1" parent="1">
          <mxGeometry x="740" y="130" width="230" height="104" as="geometry" />
        </mxCell>
        <mxCell id="ruvSU1vN5b7MfU3gPPGW-36" value="1.Задача" style="text;strokeColor=none;fillColor=none;align=left;verticalAlign=top;spacingLeft=4;spacingRight=4;overflow=hidden;rotatable=0;points=[[0,0.5],[1,0.5]];portConstraint=eastwest;whiteSpace=wrap;html=1;" vertex="1" parent="ruvSU1vN5b7MfU3gPPGW-35">
          <mxGeometry y="26" width="230" height="26" as="geometry" />
        </mxCell>
        <mxCell id="ruvSU1vN5b7MfU3gPPGW-37" value="2. Задача" style="text;strokeColor=none;fillColor=none;align=left;verticalAlign=top;spacingLeft=4;spacingRight=4;overflow=hidden;rotatable=0;points=[[0,0.5],[1,0.5]];portConstraint=eastwest;whiteSpace=wrap;html=1;" vertex="1" parent="ruvSU1vN5b7MfU3gPPGW-35">
          <mxGeometry y="52" width="230" height="26" as="geometry" />
        </mxCell>
        <mxCell id="ruvSU1vN5b7MfU3gPPGW-38" value="3. Задача" style="text;strokeColor=none;fillColor=none;align=left;verticalAlign=top;spacingLeft=4;spacingRight=4;overflow=hidden;rotatable=0;points=[[0,0.5],[1,0.5]];portConstraint=eastwest;whiteSpace=wrap;html=1;" vertex="1" parent="ruvSU1vN5b7MfU3gPPGW-35">
          <mxGeometry y="78" width="230" height="26" as="geometry" />
        </mxCell>
        <mxCell id="ruvSU1vN5b7MfU3gPPGW-39" value="Завтра" style="swimlane;fontStyle=0;childLayout=stackLayout;horizontal=1;startSize=26;fillColor=none;horizontalStack=0;resizeParent=1;resizeParentMax=0;resizeLast=0;collapsible=1;marginBottom=0;html=1;" vertex="1" parent="1">
          <mxGeometry x="740" y="256" width="230" height="104" as="geometry" />
        </mxCell>
        <mxCell id="ruvSU1vN5b7MfU3gPPGW-40" value="1.Задача" style="text;strokeColor=none;fillColor=none;align=left;verticalAlign=top;spacingLeft=4;spacingRight=4;overflow=hidden;rotatable=0;points=[[0,0.5],[1,0.5]];portConstraint=eastwest;whiteSpace=wrap;html=1;" vertex="1" parent="ruvSU1vN5b7MfU3gPPGW-39">
          <mxGeometry y="26" width="230" height="26" as="geometry" />
        </mxCell>
        <mxCell id="ruvSU1vN5b7MfU3gPPGW-41" value="2. Задача" style="text;strokeColor=none;fillColor=none;align=left;verticalAlign=top;spacingLeft=4;spacingRight=4;overflow=hidden;rotatable=0;points=[[0,0.5],[1,0.5]];portConstraint=eastwest;whiteSpace=wrap;html=1;" vertex="1" parent="ruvSU1vN5b7MfU3gPPGW-39">
          <mxGeometry y="52" width="230" height="26" as="geometry" />
        </mxCell>
        <mxCell id="ruvSU1vN5b7MfU3gPPGW-42" value="3. Задача" style="text;strokeColor=none;fillColor=none;align=left;verticalAlign=top;spacingLeft=4;spacingRight=4;overflow=hidden;rotatable=0;points=[[0,0.5],[1,0.5]];portConstraint=eastwest;whiteSpace=wrap;html=1;" vertex="1" parent="ruvSU1vN5b7MfU3gPPGW-39">
          <mxGeometry y="78" width="230" height="26" as="geometry" />
        </mxCell>
        <mxCell id="ruvSU1vN5b7MfU3gPPGW-43" value="" style="html=1;shadow=0;dashed=0;align=center;verticalAlign=middle;shape=mxgraph.arrows2.arrow;dy=0.6;dx=40;notch=0;" vertex="1" parent="1">
          <mxGeometry x="940" y="374" width="30" height="20" as="geometry" />
        </mxCell>
        <mxCell id="ruvSU1vN5b7MfU3gPPGW-44" value="Открыть календарь" style="text;html=1;align=right;verticalAlign=middle;whiteSpace=wrap;rounded=0;" vertex="1" parent="1">
          <mxGeometry x="810" y="374" width="120" height="20" as="geometry" />
        </mxCell>
        <mxCell id="ruvSU1vN5b7MfU3gPPGW-48" value="" style="whiteSpace=wrap;html=1;aspect=fixed;" vertex="1" parent="1">
          <mxGeometry x="740" y="460" width="40" height="40" as="geometry" />
        </mxCell>
        <mxCell id="ruvSU1vN5b7MfU3gPPGW-47" value="" style="shape=collate;whiteSpace=wrap;html=1;" vertex="1" parent="1">
          <mxGeometry x="740" y="460" width="40" height="40" as="geometry" />
        </mxCell>
        <mxCell id="ruvSU1vN5b7MfU3gPPGW-49" value="Создать новую&amp;nbsp;&lt;div&gt;заметку&lt;/div&gt;" style="text;html=1;align=left;verticalAlign=middle;whiteSpace=wrap;rounded=0;" vertex="1" parent="1">
          <mxGeometry x="787.5" y="470" width="135" height="20" as="geometry" />
        </mxCell>
        <mxCell id="ruvSU1vN5b7MfU3gPPGW-50" value="" style="html=1;shadow=0;dashed=0;align=center;verticalAlign=middle;shape=mxgraph.arrows2.arrow;dy=0.6;dx=40;notch=0;flipV=0;flipH=1;" vertex="1" parent="1">
          <mxGeometry x="740" y="70" width="30" height="20" as="geometry" />
        </mxCell>
        <mxCell id="ruvSU1vN5b7MfU3gPPGW-51" value="" style="verticalLabelPosition=bottom;verticalAlign=top;html=1;shape=mxgraph.basic.rect;fillColor2=none;strokeWidth=1;size=20;indent=5;" vertex="1" parent="1">
          <mxGeometry x="1050" y="50" width="270" height="480" as="geometry" />
        </mxCell>
        <mxCell id="ruvSU1vN5b7MfU3gPPGW-52" value="" style="endArrow=none;html=1;rounded=0;entryX=1.005;entryY=0.161;entryDx=0;entryDy=0;entryPerimeter=0;exitX=-0.002;exitY=0.161;exitDx=0;exitDy=0;exitPerimeter=0;" edge="1" parent="1">
          <mxGeometry width="50" height="50" relative="1" as="geometry">
            <mxPoint x="1050" y="120" as="sourcePoint" />
            <mxPoint x="1322" y="120" as="targetPoint" />
          </mxGeometry>
        </mxCell>
        <mxCell id="ruvSU1vN5b7MfU3gPPGW-53" value="&lt;font style=&quot;font-size: 14px;&quot;&gt;Обучение и справочники&lt;/font&gt;" style="text;html=1;align=center;verticalAlign=middle;whiteSpace=wrap;rounded=0;" vertex="1" parent="1">
          <mxGeometry x="1100" y="70" width="180" height="20" as="geometry" />
        </mxCell>
        <mxCell id="ruvSU1vN5b7MfU3gPPGW-54" value="" style="verticalLabelPosition=bottom;verticalAlign=top;html=1;shape=mxgraph.basic.star" vertex="1" parent="1">
          <mxGeometry x="1070" y="130" width="40" height="30" as="geometry" />
        </mxCell>
        <mxCell id="ruvSU1vN5b7MfU3gPPGW-55" value="Избранные справочники" style="text;html=1;align=center;verticalAlign=middle;whiteSpace=wrap;rounded=0;" vertex="1" parent="1">
          <mxGeometry x="1115" y="130" width="150" height="30" as="geometry" />
        </mxCell>
        <mxCell id="ruvSU1vN5b7MfU3gPPGW-56" value="" style="html=1;shadow=0;dashed=0;align=center;verticalAlign=middle;shape=mxgraph.arrows2.arrow;dy=0.6;dx=40;notch=0;flipV=0;flipH=1;" vertex="1" parent="1">
          <mxGeometry x="1065" y="70" width="30" height="20" as="geometry" />
        </mxCell>
        <mxCell id="ruvSU1vN5b7MfU3gPPGW-59" value="" style="whiteSpace=wrap;html=1;aspect=fixed;" vertex="1" parent="1">
          <mxGeometry x="1075" y="180" width="30" height="30" as="geometry" />
        </mxCell>
        <mxCell id="ruvSU1vN5b7MfU3gPPGW-57" value="" style="shape=collate;whiteSpace=wrap;html=1;" vertex="1" parent="1">
          <mxGeometry x="1075" y="180" width="30" height="30" as="geometry" />
        </mxCell>
        <mxCell id="ruvSU1vN5b7MfU3gPPGW-60" value="Все справочники" style="text;html=1;align=center;verticalAlign=middle;whiteSpace=wrap;rounded=0;" vertex="1" parent="1">
          <mxGeometry x="1120" y="185" width="110" height="20" as="geometry" />
        </mxCell>
        <mxCell id="ruvSU1vN5b7MfU3gPPGW-62" value="" style="whiteSpace=wrap;html=1;aspect=fixed;" vertex="1" parent="1">
          <mxGeometry x="1075" y="226" width="30" height="30" as="geometry" />
        </mxCell>
        <mxCell id="ruvSU1vN5b7MfU3gPPGW-61" value="" style="shape=collate;whiteSpace=wrap;html=1;" vertex="1" parent="1">
          <mxGeometry x="1075" y="226" width="30" height="30" as="geometry" />
        </mxCell>
        <mxCell id="ruvSU1vN5b7MfU3gPPGW-65" value="Обучение" style="text;html=1;align=center;verticalAlign=middle;whiteSpace=wrap;rounded=0;" vertex="1" parent="1">
          <mxGeometry x="1120" y="226" width="60" height="30" as="geometry" />
        </mxCell>
        <mxCell id="ruvSU1vN5b7MfU3gPPGW-66" value="Доступное обучение" style="shape=partialRectangle;fillColor=none;align=left;verticalAlign=middle;strokeColor=none;spacingLeft=34;rotatable=0;points=[[0,0.5],[1,0.5]];portConstraint=eastwest;dropTarget=0;" vertex="1" parent="1">
          <mxGeometry x="1065" y="256" width="75" height="30" as="geometry" />
        </mxCell>
        <mxCell id="ruvSU1vN5b7MfU3gPPGW-67" value="" style="shape=partialRectangle;top=0;left=0;bottom=0;fillColor=none;stokeWidth=1;dashed=1;align=left;verticalAlign=middle;spacingLeft=4;spacingRight=4;overflow=hidden;rotatable=0;points=[];portConstraint=eastwest;part=1;" vertex="1" connectable="0" parent="ruvSU1vN5b7MfU3gPPGW-66">
          <mxGeometry width="25" height="30" as="geometry" />
        </mxCell>
        <mxCell id="ruvSU1vN5b7MfU3gPPGW-68" value="Пройденное обучение" style="shape=partialRectangle;fillColor=none;align=left;verticalAlign=middle;strokeColor=none;spacingLeft=34;rotatable=0;points=[[0,0.5],[1,0.5]];portConstraint=eastwest;dropTarget=0;" vertex="1" parent="1">
          <mxGeometry x="1067.5" y="286" width="70" height="30" as="geometry" />
        </mxCell>
        <mxCell id="ruvSU1vN5b7MfU3gPPGW-69" value="" style="shape=partialRectangle;top=0;left=0;bottom=0;fillColor=none;stokeWidth=1;dashed=1;align=left;verticalAlign=middle;spacingLeft=4;spacingRight=4;overflow=hidden;rotatable=0;points=[];portConstraint=eastwest;part=1;" vertex="1" connectable="0" parent="ruvSU1vN5b7MfU3gPPGW-68">
          <mxGeometry width="23.333333333333332" height="30" as="geometry" />
        </mxCell>
        <mxCell id="ruvSU1vN5b7MfU3gPPGW-70" value="" style="whiteSpace=wrap;html=1;shape=mxgraph.basic.oval_callout;flipV=0;flipH=1;" vertex="1" parent="1">
          <mxGeometry x="920" y="460" width="50" height="40" as="geometry" />
        </mxCell>
        <mxCell id="ruvSU1vN5b7MfU3gPPGW-71" value="" style="whiteSpace=wrap;html=1;shape=mxgraph.basic.oval_callout;flipV=0;flipH=1;" vertex="1" parent="1">
          <mxGeometry x="1250" y="460" width="50" height="40" as="geometry" />
        </mxCell>
        <mxCell id="ruvSU1vN5b7MfU3gPPGW-72" value="" style="verticalLabelPosition=bottom;verticalAlign=top;html=1;shape=mxgraph.basic.rect;fillColor2=none;strokeWidth=1;size=20;indent=5;" vertex="1" parent="1">
          <mxGeometry x="90" y="550" width="270" height="480" as="geometry" />
        </mxCell>
        <mxCell id="ruvSU1vN5b7MfU3gPPGW-73" value="" style="endArrow=none;html=1;rounded=0;entryX=1.005;entryY=0.161;entryDx=0;entryDy=0;entryPerimeter=0;exitX=-0.002;exitY=0.161;exitDx=0;exitDy=0;exitPerimeter=0;" edge="1" parent="1">
          <mxGeometry width="50" height="50" relative="1" as="geometry">
            <mxPoint x="90" y="620" as="sourcePoint" />
            <mxPoint x="362" y="620" as="targetPoint" />
          </mxGeometry>
        </mxCell>
        <mxCell id="ruvSU1vN5b7MfU3gPPGW-75" value="Проложить маршрут" style="text;html=1;align=center;verticalAlign=middle;whiteSpace=wrap;rounded=0;" vertex="1" parent="1">
          <mxGeometry x="160" y="570" width="130" height="30" as="geometry" />
        </mxCell>
        <mxCell id="ruvSU1vN5b7MfU3gPPGW-76" value="" style="html=1;shadow=0;dashed=0;align=center;verticalAlign=middle;shape=mxgraph.arrows2.arrow;dy=0.6;dx=40;notch=0;flipV=0;flipH=1;" vertex="1" parent="1">
          <mxGeometry x="105" y="575" width="30" height="20" as="geometry" />
        </mxCell>
        <mxCell id="ruvSU1vN5b7MfU3gPPGW-77" value="Из: офис" style="rounded=1;whiteSpace=wrap;html=1;align=left;" vertex="1" parent="1">
          <mxGeometry x="120" y="630" width="210" height="30" as="geometry" />
        </mxCell>
        <mxCell id="ruvSU1vN5b7MfU3gPPGW-78" value="Куда:" style="rounded=1;whiteSpace=wrap;html=1;align=left;" vertex="1" parent="1">
          <mxGeometry x="120" y="670" width="210" height="30" as="geometry" />
        </mxCell>
        <mxCell id="ruvSU1vN5b7MfU3gPPGW-79" value="" style="whiteSpace=wrap;html=1;aspect=fixed;" vertex="1" parent="1">
          <mxGeometry x="100" y="720" width="250" height="250" as="geometry" />
        </mxCell>
        <mxCell id="ruvSU1vN5b7MfU3gPPGW-80" value="" style="shape=collate;whiteSpace=wrap;html=1;" vertex="1" parent="1">
          <mxGeometry x="100" y="720" width="250" height="250" as="geometry" />
        </mxCell>
        <mxCell id="ruvSU1vN5b7MfU3gPPGW-81" value="Поехали" style="rounded=1;whiteSpace=wrap;html=1;" vertex="1" parent="1">
          <mxGeometry x="180" y="980" width="90" height="30" as="geometry" />
        </mxCell>
        <mxCell id="ruvSU1vN5b7MfU3gPPGW-82" value="" style="endArrow=none;html=1;rounded=0;endFill=1;startFill=0;arcSize=39;" edge="1" parent="1">
          <mxGeometry relative="1" as="geometry">
            <mxPoint x="330" y="79.77" as="sourcePoint" />
            <mxPoint x="350" y="79.77" as="targetPoint" />
          </mxGeometry>
        </mxCell>
        <mxCell id="ruvSU1vN5b7MfU3gPPGW-83" value="" style="endArrow=none;html=1;rounded=0;endFill=1;startFill=0;arcSize=39;" edge="1" parent="1">
          <mxGeometry relative="1" as="geometry">
            <mxPoint x="330" y="89.77000000000001" as="sourcePoint" />
            <mxPoint x="350" y="89.77000000000001" as="targetPoint" />
          </mxGeometry>
        </mxCell>
        <mxCell id="ruvSU1vN5b7MfU3gPPGW-87" value="" style="endArrow=none;html=1;rounded=0;endFill=1;startFill=0;arcSize=39;" edge="1" parent="1">
          <mxGeometry relative="1" as="geometry">
            <mxPoint x="960" y="79.75" as="sourcePoint" />
            <mxPoint x="980" y="79.75" as="targetPoint" />
          </mxGeometry>
        </mxCell>
        <mxCell id="ruvSU1vN5b7MfU3gPPGW-88" value="" style="endArrow=none;html=1;rounded=0;endFill=1;startFill=0;arcSize=39;" edge="1" parent="1">
          <mxGeometry relative="1" as="geometry">
            <mxPoint x="960" y="89.75000000000001" as="sourcePoint" />
            <mxPoint x="980" y="89.75000000000001" as="targetPoint" />
          </mxGeometry>
        </mxCell>
        <mxCell id="ruvSU1vN5b7MfU3gPPGW-89" value="" style="endArrow=none;html=1;rounded=0;endFill=1;startFill=0;arcSize=39;" edge="1" parent="1">
          <mxGeometry relative="1" as="geometry">
            <mxPoint x="1290" y="79.61" as="sourcePoint" />
            <mxPoint x="1310" y="79.61" as="targetPoint" />
          </mxGeometry>
        </mxCell>
        <mxCell id="ruvSU1vN5b7MfU3gPPGW-90" value="" style="endArrow=none;html=1;rounded=0;endFill=1;startFill=0;arcSize=39;" edge="1" parent="1">
          <mxGeometry relative="1" as="geometry">
            <mxPoint x="1290" y="89.61000000000001" as="sourcePoint" />
            <mxPoint x="1310" y="89.61000000000001" as="targetPoint" />
          </mxGeometry>
        </mxCell>
        <mxCell id="ruvSU1vN5b7MfU3gPPGW-91" value="" style="endArrow=none;html=1;rounded=0;endFill=1;startFill=0;arcSize=39;" edge="1" parent="1">
          <mxGeometry relative="1" as="geometry">
            <mxPoint x="330" y="579.8" as="sourcePoint" />
            <mxPoint x="350" y="579.8" as="targetPoint" />
          </mxGeometry>
        </mxCell>
        <mxCell id="ruvSU1vN5b7MfU3gPPGW-92" value="" style="endArrow=none;html=1;rounded=0;endFill=1;startFill=0;arcSize=39;" edge="1" parent="1">
          <mxGeometry relative="1" as="geometry">
            <mxPoint x="330" y="589.8" as="sourcePoint" />
            <mxPoint x="350" y="589.8" as="targetPoint" />
          </mxGeometry>
        </mxCell>
        <mxCell id="ruvSU1vN5b7MfU3gPPGW-93" value="" style="verticalLabelPosition=bottom;verticalAlign=top;html=1;shape=mxgraph.basic.rect;fillColor2=none;strokeWidth=1;size=20;indent=5;" vertex="1" parent="1">
          <mxGeometry x="391" y="50" width="270" height="480" as="geometry" />
        </mxCell>
        <mxCell id="ruvSU1vN5b7MfU3gPPGW-94" value="" style="shape=actor;whiteSpace=wrap;html=1;" vertex="1" parent="1">
          <mxGeometry x="411" y="80" width="20" height="30" as="geometry" />
        </mxCell>
        <mxCell id="ruvSU1vN5b7MfU3gPPGW-95" value="Hello, user!" style="text;html=1;align=center;verticalAlign=middle;whiteSpace=wrap;rounded=0;" vertex="1" parent="1">
          <mxGeometry x="441" y="80" width="80" height="30" as="geometry" />
        </mxCell>
        <mxCell id="ruvSU1vN5b7MfU3gPPGW-96" value="" style="whiteSpace=wrap;html=1;shape=mxgraph.basic.oval_callout;flipV=0;flipH=1;" vertex="1" parent="1">
          <mxGeometry x="591" y="470" width="50" height="40" as="geometry" />
        </mxCell>
        <mxCell id="ruvSU1vN5b7MfU3gPPGW-97" value="" style="endArrow=none;html=1;rounded=0;entryX=1.005;entryY=0.161;entryDx=0;entryDy=0;entryPerimeter=0;exitX=-0.002;exitY=0.161;exitDx=0;exitDy=0;exitPerimeter=0;" edge="1" parent="1" source="ruvSU1vN5b7MfU3gPPGW-93" target="ruvSU1vN5b7MfU3gPPGW-93">
          <mxGeometry width="50" height="50" relative="1" as="geometry">
            <mxPoint x="611" y="270" as="sourcePoint" />
            <mxPoint x="661" y="220" as="targetPoint" />
          </mxGeometry>
        </mxCell>
        <mxCell id="ruvSU1vN5b7MfU3gPPGW-98" value="Задачи на сегодня" style="text;html=1;align=left;verticalAlign=middle;whiteSpace=wrap;rounded=0;" vertex="1" parent="1">
          <mxGeometry x="411" y="140" width="110" height="20" as="geometry" />
        </mxCell>
        <mxCell id="ruvSU1vN5b7MfU3gPPGW-99" value="Сегодня&amp;nbsp;" style="swimlane;fontStyle=0;childLayout=stackLayout;horizontal=1;startSize=26;fillColor=none;horizontalStack=0;resizeParent=1;resizeParentMax=0;resizeLast=0;collapsible=1;marginBottom=0;html=1;" vertex="1" parent="1">
          <mxGeometry x="411" y="170" width="230" height="104" as="geometry" />
        </mxCell>
        <mxCell id="ruvSU1vN5b7MfU3gPPGW-100" value="1.Задача" style="text;strokeColor=none;fillColor=none;align=left;verticalAlign=top;spacingLeft=4;spacingRight=4;overflow=hidden;rotatable=0;points=[[0,0.5],[1,0.5]];portConstraint=eastwest;whiteSpace=wrap;html=1;" vertex="1" parent="ruvSU1vN5b7MfU3gPPGW-99">
          <mxGeometry y="26" width="230" height="26" as="geometry" />
        </mxCell>
        <mxCell id="ruvSU1vN5b7MfU3gPPGW-101" value="2. Задача" style="text;strokeColor=none;fillColor=none;align=left;verticalAlign=top;spacingLeft=4;spacingRight=4;overflow=hidden;rotatable=0;points=[[0,0.5],[1,0.5]];portConstraint=eastwest;whiteSpace=wrap;html=1;" vertex="1" parent="ruvSU1vN5b7MfU3gPPGW-99">
          <mxGeometry y="52" width="230" height="26" as="geometry" />
        </mxCell>
        <mxCell id="ruvSU1vN5b7MfU3gPPGW-102" value="3. Задача" style="text;strokeColor=none;fillColor=none;align=left;verticalAlign=top;spacingLeft=4;spacingRight=4;overflow=hidden;rotatable=0;points=[[0,0.5],[1,0.5]];portConstraint=eastwest;whiteSpace=wrap;html=1;" vertex="1" parent="ruvSU1vN5b7MfU3gPPGW-99">
          <mxGeometry y="78" width="230" height="26" as="geometry" />
        </mxCell>
        <mxCell id="ruvSU1vN5b7MfU3gPPGW-103" value="" style="html=1;shadow=0;dashed=0;align=center;verticalAlign=middle;shape=mxgraph.arrows2.arrow;dy=0.6;dx=40;notch=0;" vertex="1" parent="1">
          <mxGeometry x="611" y="280" width="30" height="20" as="geometry" />
        </mxCell>
        <mxCell id="ruvSU1vN5b7MfU3gPPGW-104" value="Ещё" style="text;html=1;align=right;verticalAlign=middle;whiteSpace=wrap;rounded=0;" vertex="1" parent="1">
          <mxGeometry x="561" y="280" width="40" height="20" as="geometry" />
        </mxCell>
        <mxCell id="ruvSU1vN5b7MfU3gPPGW-105" value="" style="endArrow=none;html=1;rounded=0;entryX=1.005;entryY=0.161;entryDx=0;entryDy=0;entryPerimeter=0;exitX=-0.002;exitY=0.161;exitDx=0;exitDy=0;exitPerimeter=0;" edge="1" parent="1">
          <mxGeometry width="50" height="50" relative="1" as="geometry">
            <mxPoint x="390" y="310" as="sourcePoint" />
            <mxPoint x="662" y="310" as="targetPoint" />
          </mxGeometry>
        </mxCell>
        <mxCell id="ruvSU1vN5b7MfU3gPPGW-106" value="" style="whiteSpace=wrap;html=1;aspect=fixed;" vertex="1" parent="1">
          <mxGeometry x="411" y="320" width="40" height="40" as="geometry" />
        </mxCell>
        <mxCell id="ruvSU1vN5b7MfU3gPPGW-107" value="" style="shape=collate;whiteSpace=wrap;html=1;" vertex="1" parent="1">
          <mxGeometry x="411" y="320" width="40" height="40" as="geometry" />
        </mxCell>
        <mxCell id="ruvSU1vN5b7MfU3gPPGW-108" value="Доступно новое обучение!" style="text;html=1;align=center;verticalAlign=middle;whiteSpace=wrap;rounded=0;" vertex="1" parent="1">
          <mxGeometry x="461" y="320" width="150" height="25" as="geometry" />
        </mxCell>
        <mxCell id="ruvSU1vN5b7MfU3gPPGW-109" value="&lt;font style=&quot;font-size: 10px;&quot;&gt;Пройти&lt;/font&gt;" style="text;html=1;align=center;verticalAlign=middle;whiteSpace=wrap;rounded=0;fontStyle=4" vertex="1" parent="1">
          <mxGeometry x="501" y="345" width="50" height="15" as="geometry" />
        </mxCell>
        <mxCell id="ruvSU1vN5b7MfU3gPPGW-110" value="" style="whiteSpace=wrap;html=1;aspect=fixed;" vertex="1" parent="1">
          <mxGeometry x="411" y="394" width="40" height="40" as="geometry" />
        </mxCell>
        <mxCell id="ruvSU1vN5b7MfU3gPPGW-111" value="" style="whiteSpace=wrap;html=1;aspect=fixed;" vertex="1" parent="1">
          <mxGeometry x="491" y="470" width="40" height="40" as="geometry" />
        </mxCell>
        <mxCell id="ruvSU1vN5b7MfU3gPPGW-112" value="" style="shape=collate;whiteSpace=wrap;html=1;" vertex="1" parent="1">
          <mxGeometry x="491" y="470" width="40" height="40" as="geometry" />
        </mxCell>
        <mxCell id="ruvSU1vN5b7MfU3gPPGW-113" value="Состояние автоматов" style="text;html=1;align=center;verticalAlign=middle;whiteSpace=wrap;rounded=0;" vertex="1" parent="1">
          <mxGeometry x="461" y="406" width="130" height="16" as="geometry" />
        </mxCell>
        <mxCell id="ruvSU1vN5b7MfU3gPPGW-114" value="" style="shape=collate;whiteSpace=wrap;html=1;" vertex="1" parent="1">
          <mxGeometry x="411" y="394" width="40" height="40" as="geometry" />
        </mxCell>
        <mxCell id="ruvSU1vN5b7MfU3gPPGW-115" value="&lt;font style=&quot;font-size: 8px;&quot;&gt;камера&lt;/font&gt;" style="text;html=1;align=center;verticalAlign=middle;whiteSpace=wrap;rounded=0;" vertex="1" parent="1">
          <mxGeometry x="491" y="510" width="40" height="10" as="geometry" />
        </mxCell>
        <mxCell id="ruvSU1vN5b7MfU3gPPGW-116" value="" style="whiteSpace=wrap;html=1;aspect=fixed;" vertex="1" parent="1">
          <mxGeometry x="411" y="470" width="40" height="40" as="geometry" />
        </mxCell>
        <mxCell id="ruvSU1vN5b7MfU3gPPGW-117" value="" style="shape=collate;whiteSpace=wrap;html=1;" vertex="1" parent="1">
          <mxGeometry x="411" y="470" width="40" height="40" as="geometry" />
        </mxCell>
        <mxCell id="ruvSU1vN5b7MfU3gPPGW-118" value="&lt;font style=&quot;font-size: 8px;&quot;&gt;отчет&lt;/font&gt;" style="text;html=1;align=center;verticalAlign=middle;whiteSpace=wrap;rounded=0;" vertex="1" parent="1">
          <mxGeometry x="411" y="510" width="40" height="10" as="geometry" />
        </mxCell>
        <mxCell id="ruvSU1vN5b7MfU3gPPGW-119" value="" style="endArrow=none;html=1;rounded=0;endFill=1;startFill=0;arcSize=39;" edge="1" parent="1">
          <mxGeometry relative="1" as="geometry">
            <mxPoint x="631" y="79.77" as="sourcePoint" />
            <mxPoint x="651" y="79.77" as="targetPoint" />
          </mxGeometry>
        </mxCell>
        <mxCell id="ruvSU1vN5b7MfU3gPPGW-120" value="" style="endArrow=none;html=1;rounded=0;endFill=1;startFill=0;arcSize=39;" edge="1" parent="1">
          <mxGeometry relative="1" as="geometry">
            <mxPoint x="631" y="89.77000000000001" as="sourcePoint" />
            <mxPoint x="651" y="89.77000000000001" as="targetPoint" />
          </mxGeometry>
        </mxCell>
        <mxCell id="ruvSU1vN5b7MfU3gPPGW-122" value="" style="rounded=0;whiteSpace=wrap;html=1;" vertex="1" parent="1">
          <mxGeometry x="490" y="50" width="170" height="480" as="geometry" />
        </mxCell>
        <mxCell id="ruvSU1vN5b7MfU3gPPGW-123" value="" style="endArrow=none;html=1;rounded=0;endFill=1;startFill=0;arcSize=39;" edge="1" parent="1">
          <mxGeometry relative="1" as="geometry">
            <mxPoint x="501" y="79.57" as="sourcePoint" />
            <mxPoint x="521" y="79.57" as="targetPoint" />
          </mxGeometry>
        </mxCell>
        <mxCell id="ruvSU1vN5b7MfU3gPPGW-124" value="" style="endArrow=none;html=1;rounded=0;endFill=1;startFill=0;arcSize=39;" edge="1" parent="1">
          <mxGeometry relative="1" as="geometry">
            <mxPoint x="501" y="89.57000000000001" as="sourcePoint" />
            <mxPoint x="521" y="89.57000000000001" as="targetPoint" />
          </mxGeometry>
        </mxCell>
        <mxCell id="ruvSU1vN5b7MfU3gPPGW-125" value="Задачи" style="text;html=1;align=left;verticalAlign=middle;whiteSpace=wrap;rounded=0;" vertex="1" parent="1">
          <mxGeometry x="506" y="100" width="60" height="30" as="geometry" />
        </mxCell>
        <mxCell id="ruvSU1vN5b7MfU3gPPGW-126" value="Отчетность" style="text;html=1;align=left;verticalAlign=middle;whiteSpace=wrap;rounded=0;" vertex="1" parent="1">
          <mxGeometry x="506" y="130" width="60" height="30" as="geometry" />
        </mxCell>
        <mxCell id="ruvSU1vN5b7MfU3gPPGW-127" value="Обучение" style="text;html=1;align=left;verticalAlign=middle;whiteSpace=wrap;rounded=0;" vertex="1" parent="1">
          <mxGeometry x="506" y="160" width="60" height="30" as="geometry" />
        </mxCell>
        <mxCell id="ruvSU1vN5b7MfU3gPPGW-128" value="Заметки и планирование&amp;nbsp;" style="text;html=1;align=left;verticalAlign=middle;whiteSpace=wrap;rounded=0;" vertex="1" parent="1">
          <mxGeometry x="506" y="190" width="60" height="30" as="geometry" />
        </mxCell>
        <mxCell id="ruvSU1vN5b7MfU3gPPGW-129" value="Проложить маршрут" style="text;html=1;align=left;verticalAlign=middle;whiteSpace=wrap;rounded=0;" vertex="1" parent="1">
          <mxGeometry x="506" y="226" width="124" height="30" as="geometry" />
        </mxCell>
        <mxCell id="ruvSU1vN5b7MfU3gPPGW-130" value="Состояние автоматов" style="text;html=1;align=left;verticalAlign=middle;whiteSpace=wrap;rounded=0;" vertex="1" parent="1">
          <mxGeometry x="506" y="256" width="124" height="30" as="geometry" />
        </mxCell>
        <mxCell id="ruvSU1vN5b7MfU3gPPGW-131" value="&lt;u&gt;выйти&lt;/u&gt;" style="text;html=1;align=left;verticalAlign=middle;whiteSpace=wrap;rounded=0;" vertex="1" parent="1">
          <mxGeometry x="601" y="490" width="49" height="30" as="geometry" />
        </mxCell>
        <mxCell id="ruvSU1vN5b7MfU3gPPGW-132" value="" style="verticalLabelPosition=bottom;verticalAlign=top;html=1;shape=mxgraph.basic.rect;fillColor2=none;strokeWidth=1;size=20;indent=5;" vertex="1" parent="1">
          <mxGeometry x="391" y="550" width="270" height="480" as="geometry" />
        </mxCell>
        <mxCell id="ruvSU1vN5b7MfU3gPPGW-133" value="" style="endArrow=none;html=1;rounded=0;entryX=1.005;entryY=0.161;entryDx=0;entryDy=0;entryPerimeter=0;exitX=-0.002;exitY=0.161;exitDx=0;exitDy=0;exitPerimeter=0;" edge="1" parent="1">
          <mxGeometry width="50" height="50" relative="1" as="geometry">
            <mxPoint x="391" y="620" as="sourcePoint" />
            <mxPoint x="663" y="620" as="targetPoint" />
          </mxGeometry>
        </mxCell>
        <mxCell id="ruvSU1vN5b7MfU3gPPGW-134" value="Отчетность" style="text;html=1;align=center;verticalAlign=middle;whiteSpace=wrap;rounded=0;" vertex="1" parent="1">
          <mxGeometry x="476" y="570" width="100" height="30" as="geometry" />
        </mxCell>
        <mxCell id="ruvSU1vN5b7MfU3gPPGW-135" value="" style="html=1;shadow=0;dashed=0;align=center;verticalAlign=middle;shape=mxgraph.arrows2.arrow;dy=0.6;dx=40;notch=0;flipV=0;flipH=1;" vertex="1" parent="1">
          <mxGeometry x="406" y="575" width="30" height="20" as="geometry" />
        </mxCell>
        <mxCell id="ruvSU1vN5b7MfU3gPPGW-137" value="" style="endArrow=none;html=1;rounded=0;endFill=1;startFill=0;arcSize=39;" edge="1" parent="1">
          <mxGeometry relative="1" as="geometry">
            <mxPoint x="621" y="579.8399999999999" as="sourcePoint" />
            <mxPoint x="641" y="579.8399999999999" as="targetPoint" />
          </mxGeometry>
        </mxCell>
        <mxCell id="ruvSU1vN5b7MfU3gPPGW-138" value="" style="endArrow=none;html=1;rounded=0;endFill=1;startFill=0;arcSize=39;" edge="1" parent="1">
          <mxGeometry relative="1" as="geometry">
            <mxPoint x="621" y="589.8399999999999" as="sourcePoint" />
            <mxPoint x="641" y="589.8399999999999" as="targetPoint" />
          </mxGeometry>
        </mxCell>
        <mxCell id="ruvSU1vN5b7MfU3gPPGW-139" value="" style="whiteSpace=wrap;html=1;aspect=fixed;" vertex="1" parent="1">
          <mxGeometry x="411" y="650" width="40" height="40" as="geometry" />
        </mxCell>
        <mxCell id="ruvSU1vN5b7MfU3gPPGW-140" value="" style="shape=collate;whiteSpace=wrap;html=1;" vertex="1" parent="1">
          <mxGeometry x="411" y="650" width="40" height="40" as="geometry" />
        </mxCell>
        <mxCell id="ruvSU1vN5b7MfU3gPPGW-141" value="Заполнить отчет о проведенной работе" style="text;html=1;align=center;verticalAlign=middle;whiteSpace=wrap;rounded=0;" vertex="1" parent="1">
          <mxGeometry x="451" y="660" width="150" height="20" as="geometry" />
        </mxCell>
        <mxCell id="ruvSU1vN5b7MfU3gPPGW-143" value="" style="whiteSpace=wrap;html=1;aspect=fixed;" vertex="1" parent="1">
          <mxGeometry x="411" y="720" width="40" height="40" as="geometry" />
        </mxCell>
        <mxCell id="ruvSU1vN5b7MfU3gPPGW-142" value="" style="shape=collate;whiteSpace=wrap;html=1;" vertex="1" parent="1">
          <mxGeometry x="411" y="720" width="40" height="40" as="geometry" />
        </mxCell>
        <mxCell id="ruvSU1vN5b7MfU3gPPGW-144" value="Запросить подпись клиента&amp;nbsp;" style="text;html=1;align=center;verticalAlign=middle;whiteSpace=wrap;rounded=0;" vertex="1" parent="1">
          <mxGeometry x="462" y="725" width="139" height="30" as="geometry" />
        </mxCell>
        <mxCell id="ruvSU1vN5b7MfU3gPPGW-145" value="" style="endArrow=none;html=1;rounded=0;entryX=1.005;entryY=0.161;entryDx=0;entryDy=0;entryPerimeter=0;exitX=-0.002;exitY=0.161;exitDx=0;exitDy=0;exitPerimeter=0;" edge="1" parent="1">
          <mxGeometry width="50" height="50" relative="1" as="geometry">
            <mxPoint x="388" y="800" as="sourcePoint" />
            <mxPoint x="660" y="800" as="targetPoint" />
          </mxGeometry>
        </mxCell>
        <mxCell id="ruvSU1vN5b7MfU3gPPGW-146" value="Предыдущие отчёты:" style="text;html=1;align=left;verticalAlign=middle;whiteSpace=wrap;rounded=0;" vertex="1" parent="1">
          <mxGeometry x="411" y="820" width="150" height="20" as="geometry" />
        </mxCell>
        <mxCell id="ruvSU1vN5b7MfU3gPPGW-148" value="" style="whiteSpace=wrap;html=1;shape=mxgraph.basic.oval_callout;flipV=0;flipH=1;" vertex="1" parent="1">
          <mxGeometry x="600" y="975" width="50" height="40" as="geometry" />
        </mxCell>
        <mxCell id="ruvSU1vN5b7MfU3gPPGW-149" value="" style="verticalLabelPosition=bottom;verticalAlign=top;html=1;shape=mxgraph.basic.rect;fillColor2=none;strokeWidth=1;size=20;indent=5;" vertex="1" parent="1">
          <mxGeometry x="720" y="550" width="270" height="480" as="geometry" />
        </mxCell>
        <mxCell id="ruvSU1vN5b7MfU3gPPGW-150" value="&lt;span style=&quot;font-size: 14px;&quot;&gt;Создание заметки&lt;/span&gt;" style="text;html=1;align=center;verticalAlign=middle;whiteSpace=wrap;rounded=0;" vertex="1" parent="1">
          <mxGeometry x="790" y="575" width="132.5" height="20" as="geometry" />
        </mxCell>
        <mxCell id="ruvSU1vN5b7MfU3gPPGW-151" value="" style="endArrow=none;html=1;rounded=0;entryX=1.005;entryY=0.161;entryDx=0;entryDy=0;entryPerimeter=0;exitX=-0.002;exitY=0.161;exitDx=0;exitDy=0;exitPerimeter=0;" edge="1" parent="1">
          <mxGeometry width="50" height="50" relative="1" as="geometry">
            <mxPoint x="720" y="620" as="sourcePoint" />
            <mxPoint x="992" y="620" as="targetPoint" />
          </mxGeometry>
        </mxCell>
        <mxCell id="ruvSU1vN5b7MfU3gPPGW-165" value="" style="html=1;shadow=0;dashed=0;align=center;verticalAlign=middle;shape=mxgraph.arrows2.arrow;dy=0.6;dx=40;notch=0;flipV=0;flipH=1;" vertex="1" parent="1">
          <mxGeometry x="740" y="570" width="30" height="20" as="geometry" />
        </mxCell>
        <mxCell id="ruvSU1vN5b7MfU3gPPGW-166" value="" style="whiteSpace=wrap;html=1;shape=mxgraph.basic.oval_callout;flipV=0;flipH=1;" vertex="1" parent="1">
          <mxGeometry x="920" y="960" width="50" height="40" as="geometry" />
        </mxCell>
        <mxCell id="ruvSU1vN5b7MfU3gPPGW-167" value="" style="endArrow=none;html=1;rounded=0;endFill=1;startFill=0;arcSize=39;" edge="1" parent="1">
          <mxGeometry relative="1" as="geometry">
            <mxPoint x="960" y="579.75" as="sourcePoint" />
            <mxPoint x="980" y="579.75" as="targetPoint" />
          </mxGeometry>
        </mxCell>
        <mxCell id="ruvSU1vN5b7MfU3gPPGW-168" value="" style="endArrow=none;html=1;rounded=0;endFill=1;startFill=0;arcSize=39;" edge="1" parent="1">
          <mxGeometry relative="1" as="geometry">
            <mxPoint x="960" y="589.75" as="sourcePoint" />
            <mxPoint x="980" y="589.75" as="targetPoint" />
          </mxGeometry>
        </mxCell>
        <mxCell id="ruvSU1vN5b7MfU3gPPGW-169" value="" style="rounded=0;whiteSpace=wrap;html=1;" vertex="1" parent="1">
          <mxGeometry x="740" y="630" width="230" height="140" as="geometry" />
        </mxCell>
        <mxCell id="ruvSU1vN5b7MfU3gPPGW-170" value="&lt;font style=&quot;font-size: 11px;&quot;&gt;Выбрать дату&lt;/font&gt;" style="text;html=1;align=center;verticalAlign=middle;whiteSpace=wrap;rounded=0;" vertex="1" parent="1">
          <mxGeometry x="740" y="770" width="80" height="20" as="geometry" />
        </mxCell>
        <mxCell id="ruvSU1vN5b7MfU3gPPGW-171" value="Text" style="text;html=1;align=center;verticalAlign=middle;whiteSpace=wrap;rounded=0;" vertex="1" parent="1">
          <mxGeometry x="740" y="630" width="60" height="30" as="geometry" />
        </mxCell>
        <mxCell id="ruvSU1vN5b7MfU3gPPGW-173" value="Сохранить" style="rounded=1;whiteSpace=wrap;html=1;" vertex="1" parent="1">
          <mxGeometry x="850" y="810" width="120" height="30" as="geometry" />
        </mxCell>
      </root>
    </mxGraphModel>
  </diagram>
</mxfile>
